<svg width="80" height="80" viewBox="0 0 80 80" fill="none" xmlns="http://www.w3.org/2000/svg">
<path d="M74.1743 18.624C73.4348 18.2616 73.1163 18.9521 72.6839 19.303C72.536 19.4161 72.4109 19.5632 72.2857 19.6991C71.2049 20.8533 69.9421 21.6118 68.2923 21.5211C65.8804 21.3853 63.8211 22.1437 62.0007 23.9885C61.6139 21.7137 60.3283 20.3554 58.3714 19.4841C57.3476 19.0313 56.3122 18.5785 55.5954 17.5938C55.0949 16.8924 54.9583 16.1115 54.7081 15.3418C54.5487 14.8778 54.3895 14.4022 53.8547 14.3231C53.2745 14.2327 53.0469 14.7192 52.8194 15.1267C51.9092 16.7905 51.5566 18.624 51.5906 20.48C51.6702 24.6563 53.4337 27.9835 56.9379 30.349C57.3362 30.6206 57.4385 30.892 57.3134 31.2884C57.0744 32.1033 56.79 32.8954 56.5398 33.7103C56.3804 34.231 56.1414 34.3442 55.5841 34.1176C53.6613 33.3143 52.0001 32.1258 50.5325 30.6886C48.0409 28.2779 45.7883 25.6182 42.9782 23.5357C42.3182 23.049 41.6584 22.5965 40.9757 22.1662C38.1086 19.3822 41.3512 17.0959 42.1021 16.8244C42.887 16.5415 42.3751 15.568 39.838 15.5795C37.3008 15.5907 34.9799 16.4396 32.0219 17.5714C31.5897 17.7412 31.1344 17.8656 30.668 17.9674C27.983 17.4583 25.1955 17.3448 22.283 17.6733C16.7992 18.2844 12.4191 20.8761 9.1993 25.3013C5.33099 30.6206 4.42089 36.6641 5.53585 42.9681C6.70766 49.6114 10.098 55.1118 15.3088 59.4127C20.713 63.8716 26.9363 66.0561 34.0356 65.6373C38.3476 65.3883 43.1487 64.8112 48.5643 60.2276C49.9294 60.9067 51.363 61.1781 53.7409 61.3818C55.5726 61.5516 57.3362 61.2915 58.7013 61.0085C60.8402 60.5558 60.6924 58.5751 59.9188 58.213C53.65 55.2931 55.0265 56.4814 53.7751 55.5193C56.9607 51.7507 61.7619 47.8346 63.6391 35.1475C63.7869 34.1403 63.6618 33.5064 63.6391 32.6916C63.6277 32.1937 63.7415 32.0014 64.3104 31.9447C65.8804 31.7637 67.4049 31.3336 68.8043 30.564C72.866 28.3458 74.5042 24.7015 74.891 20.3329C74.948 19.6651 74.8797 18.9746 74.1743 18.624ZM38.7799 57.9412C32.7045 53.1654 29.7579 51.5921 28.5405 51.66C27.4028 51.728 27.6076 53.0295 27.8578 53.8784C28.1195 54.7158 28.4609 55.2931 28.9386 56.0286C29.2685 56.5153 29.4962 57.2395 28.6088 57.783C26.6519 58.994 23.25 57.3754 23.0907 57.2963C19.1316 54.9647 15.8208 51.8862 13.4884 47.6764C11.2357 43.6244 9.92744 39.2786 9.71122 34.6383C9.65436 33.518 9.98431 33.1216 11.0993 32.9181C12.5669 32.6465 14.0801 32.5897 15.5477 32.8047C21.7484 33.7103 27.0273 36.4831 31.453 40.8743C33.9787 43.3754 35.8901 46.3635 37.8584 49.2834C39.9517 52.3842 42.2044 55.3384 45.0715 57.7602C46.084 58.609 46.8918 59.2541 47.6654 59.7296C45.3332 59.9898 41.4421 60.0466 38.7799 57.9412ZM41.6924 39.2107C41.6924 38.7127 42.0907 38.3167 42.5914 38.3167C42.705 38.3167 42.8074 38.339 42.8985 38.3731C43.0237 38.4185 43.1374 38.4865 43.2284 38.5881C43.3877 38.7467 43.4787 38.9729 43.4787 39.2107C43.4787 39.7086 43.0806 40.1047 42.58 40.1047C42.0792 40.1047 41.6924 39.7086 41.6924 39.2107ZM50.7373 43.8509C50.1571 44.0887 49.5769 44.2922 49.0194 44.3149C48.1547 44.3601 47.2104 44.0092 46.6985 43.5791C45.9022 42.9114 45.3332 42.5381 45.0942 41.3723C44.9919 40.8743 45.0487 40.1047 45.1398 39.6634C45.3445 38.7127 45.117 38.1016 44.4458 37.5469C43.8996 37.0941 43.2056 36.9698 42.4433 36.9698C42.1589 36.9698 41.8974 36.8452 41.7038 36.7433C41.3852 36.5849 41.1237 36.1889 41.3739 35.7021C41.4535 35.5439 41.8405 35.159 41.9314 35.0911C42.9668 34.5024 44.1614 34.695 45.2649 35.1363C46.289 35.555 47.0626 36.3247 48.1775 37.4111C49.3152 38.7238 49.5199 39.0863 50.1684 40.0707C50.6806 40.8404 51.147 41.6325 51.4655 42.5381C51.6589 43.104 51.4086 43.568 50.7373 43.8509Z" fill="#4D6BFE"/>
</svg>
