<svg id="svg" version="1.1" xmlns="http://www.w3.org/2000/svg" xmlns:xlink="http://www.w3.org/1999/xlink" width="40" height="40" viewBox="0, 0, 400,400"><g id="svgg"><path id="path0" d="M59.200 106.567 C 59.200 139.219,59.308 166.217,59.441 166.562 C 59.752 167.372,176.021 167.538,177.793 166.730 L 178.800 166.272 178.800 136.136 C 178.800 107.704,178.760 106.000,178.100 105.995 C 177.715 105.992,164.485 105.994,148.700 106.000 L 120.000 106.010 120.000 76.848 C 120.000 50.625,119.936 47.661,119.367 47.443 C 119.019 47.309,105.339 47.200,88.967 47.200 L 59.200 47.200 59.200 106.567 M298.000 77.016 L 298.000 106.836 297.018 107.818 L 296.036 108.800 282.844 108.800 C 269.061 108.800,268.498 108.739,266.679 107.044 L 265.559 106.000 252.177 106.000 L 238.795 106.000 238.898 136.500 L 239.000 167.000 298.701 167.094 L 358.403 167.187 358.301 107.294 L 358.200 47.400 328.100 47.297 L 298.000 47.195 298.000 77.016 " stroke="none" fill="#fcb104" fill-rule="evenodd"></path><path id="path1" d="M59.062 136.935 C 59.136 186.179,59.297 226.634,59.421 226.835 C 59.554 227.049,71.389 227.206,88.124 227.214 C 112.056 227.226,116.760 227.320,117.600 227.800 C 119.417 228.839,146.449 228.654,147.108 227.598 C 147.759 226.556,236.606 226.799,238.286 227.847 C 239.891 228.848,264.968 228.636,266.992 227.604 C 268.533 226.818,269.149 226.811,313.277 227.070 L 358.000 227.332 358.000 197.166 L 358.000 167.000 298.500 167.000 L 239.000 167.000 238.898 136.505 L 238.795 106.011 252.298 105.897 L 265.800 105.784 252.000 105.792 L 238.200 105.800 238.098 136.200 C 238.042 152.920,237.913 166.825,237.811 167.100 C 237.506 167.922,208.277 167.816,207.592 166.991 C 207.150 166.457,205.227 166.408,192.243 166.595 C 176.566 166.821,59.669 167.263,59.503 167.097 C 59.450 167.044,59.299 140.090,59.168 107.200 C 58.991 62.957,58.963 70.692,59.062 136.935 M297.200 76.786 C 297.200 105.627,297.181 106.382,296.426 106.786 C 295.093 107.499,270.075 107.332,267.988 106.596 C 265.944 105.874,265.434 106.154,266.806 107.245 C 268.652 108.714,269.537 108.800,282.844 108.800 L 296.036 108.800 297.018 107.818 L 298.000 106.836 298.000 77.018 C 298.000 57.406,297.863 47.200,297.600 47.200 C 297.337 47.200,297.200 57.329,297.200 76.786 M134.329 105.900 C 142.321 105.960,155.281 105.960,163.129 105.900 C 170.978 105.839,164.440 105.790,148.600 105.790 C 132.760 105.790,126.338 105.839,134.329 105.900 " stroke="none" fill="#fb6c04" fill-rule="evenodd"></path><path id="path2" d="M177.790 257.600 C 177.790 273.770,177.839 280.385,177.900 272.300 C 177.960 264.215,177.960 250.985,177.900 242.900 C 177.839 234.815,177.790 241.430,177.790 257.600 M297.297 287.902 L 297.200 347.605 327.700 347.502 L 358.200 347.400 358.302 316.900 L 358.405 286.400 329.029 286.400 C 310.961 286.400,299.258 286.250,298.629 286.011 L 297.605 285.622 297.500 256.911 C 297.442 241.120,297.351 255.066,297.297 287.902 M58.800 316.902 L 58.800 347.605 89.300 347.502 L 119.800 347.400 119.902 316.905 L 120.005 286.410 89.402 286.305 L 58.800 286.200 58.800 316.902 " stroke="none" fill="#fc040c" fill-rule="evenodd"></path><path id="path3" d="M275.674 107.099 C 279.345 107.165,285.465 107.165,289.274 107.099 C 293.083 107.034,290.080 106.980,282.600 106.980 C 275.120 106.979,272.003 107.033,275.674 107.099 M207.549 166.935 C 208.134 167.644,237.307 167.997,237.738 167.300 C 237.841 167.135,231.367 167.049,223.354 167.110 C 212.685 167.190,208.545 167.092,207.892 166.744 C 207.084 166.314,207.052 166.332,207.549 166.935 M358.000 197.266 L 358.000 227.332 313.376 227.070 C 275.056 226.846,268.558 226.890,267.376 227.384 C 265.637 228.111,265.590 228.462,267.297 227.972 C 269.323 227.391,296.530 227.490,297.120 228.080 C 297.484 228.444,297.600 235.433,297.600 257.090 L 297.600 285.620 298.626 286.010 C 299.259 286.251,310.908 286.400,329.026 286.400 L 358.400 286.400 358.400 226.800 C 358.400 194.020,358.310 167.200,358.200 167.200 C 358.090 167.200,358.000 180.730,358.000 197.266 M58.995 226.800 L 59.000 286.200 89.500 286.302 L 120.000 286.405 120.000 257.500 L 120.000 228.596 118.500 228.014 C 117.256 227.531,112.076 227.394,88.200 227.216 L 59.400 227.000 59.195 197.200 C 59.058 177.179,58.992 186.892,58.995 226.800 M147.284 227.298 C 146.951 227.699,149.878 227.777,161.876 227.686 C 172.804 227.603,177.036 227.698,177.442 228.035 C 177.910 228.423,178.000 233.347,178.000 258.649 L 178.000 288.800 208.357 288.800 C 235.670 288.800,238.739 288.737,238.957 288.167 C 239.091 287.819,239.200 274.233,239.200 257.977 L 239.200 228.418 238.300 227.856 C 237.029 227.063,147.934 226.516,147.284 227.298 " stroke="none" fill="#fc4c0c" fill-rule="evenodd"></path><path id="path4" d="M27.600 197.400 L 27.600 347.600 43.200 347.600 L 58.800 347.600 58.800 197.400 L 58.800 47.200 43.200 47.200 L 27.600 47.200 27.600 197.400 M265.843 47.833 C 265.709 48.181,265.600 61.330,265.600 77.053 L 265.600 105.641 266.999 106.225 C 268.155 106.708,270.884 106.792,282.699 106.705 L 297.000 106.600 297.103 76.900 L 297.205 47.200 281.645 47.200 C 267.826 47.200,266.058 47.271,265.843 47.833 M207.467 105.867 C 206.684 106.650,207.190 166.366,207.983 166.791 C 208.498 167.067,213.730 167.174,223.283 167.105 L 237.800 167.000 238.000 136.300 L 238.200 105.600 222.967 105.600 C 214.588 105.600,207.613 105.720,207.467 105.867 M147.300 227.862 C 146.906 228.023,146.800 234.516,146.800 258.433 L 146.800 288.800 162.172 288.800 L 177.544 288.800 177.672 287.900 C 177.742 287.405,177.710 273.680,177.600 257.400 L 177.400 227.800 162.600 227.729 C 154.460 227.690,147.575 227.750,147.300 227.862 M266.900 228.045 L 265.600 228.423 265.600 287.379 C 265.600 319.804,265.709 346.619,265.843 346.967 C 266.058 347.529,267.826 347.600,281.644 347.600 L 297.203 347.600 297.101 287.700 L 297.000 227.800 282.600 227.734 C 274.522 227.696,267.629 227.833,266.900 228.045 " stroke="none" fill="#040404" fill-rule="evenodd"></path></g></svg>
